<?xml version="1.0" standalone="no"?>
<!DOCTYPE svg PUBLIC "-//W3C//DTD SVG 20010904//EN"
 "http://www.w3.org/TR/2001/REC-SVG-20010904/DTD/svg10.dtd">
<svg version="1.0" xmlns="http://www.w3.org/2000/svg"
 width="571.000000pt" height="571.000000pt" viewBox="0 0 571.000000 571.000000"
 preserveAspectRatio="xMidYMid meet">
<metadata>
Created by potrace 1.14, written by Peter Selinger 2001-2017
</metadata>
<g transform="translate(0.000000,571.000000) scale(0.100000,-0.100000)"
fill="#000000" stroke="none">
<path d="M1977 5700 c-226 -39 -438 -189 -573 -405 -39 -64 -49 -74 -81 -80
-101 -19 -251 -112 -346 -214 -109 -119 -169 -259 -181 -429 -3 -40 -8 -47
-62 -89 -168 -130 -263 -261 -299 -415 -15 -63 -15 -245 0 -331 6 -34 3 -41
-39 -88 -74 -82 -127 -197 -155 -334 -12 -62 -8 -215 8 -275 12 -45 12 -45
-38 -121 -74 -113 -121 -223 -147 -344 -13 -65 -13 -218 1 -284 35 -170 97
-282 231 -421 l62 -65 -20 -75 c-37 -141 -24 -323 34 -470 94 -235 301 -420
563 -503 84 -26 207 -50 262 -50 30 0 32 -2 48 -65 85 -341 485 -626 895 -637
327 -9 541 156 615 475 13 57 15 363 15 2407 l0 2342 -25 68 c-35 93 -76 153
-151 222 -88 80 -185 132 -314 167 -65 18 -235 25 -303 14z m248 -225 c119
-31 208 -86 270 -167 57 -74 59 -91 60 -455 l1 -333 -162 0 -161 0 0 168 c0
92 -3 182 -7 199 -14 63 -104 95 -160 58 -45 -30 -49 -59 -50 -343 l-1 -267
-147 -1 c-161 -1 -195 -9 -221 -53 -15 -26 -17 -73 -17 -460 0 -377 -2 -435
-16 -465 -25 -51 -12 -114 31 -156 103 -100 268 10 218 145 -12 32 -15 111
-16 390 -2 193 -1 357 1 366 3 13 26 16 153 17 166 2 198 10 219 61 7 17 12
53 13 81 0 27 3 50 6 51 23 4 311 3 312 -1 4 -15 5 -487 1 -497 -3 -10 -37
-13 -125 -12 -99 1 -126 5 -151 20 -35 21 -81 24 -123 8 -101 -38 -111 -184
-18 -245 34 -22 107 -22 141 0 23 16 103 21 244 17 l35 -1 0 -1062 0 -1063
-120 -2 c-84 -2 -131 2 -157 12 -139 54 -237 -142 -108 -219 31 -18 100 -22
116 -6 11 11 244 17 261 7 11 -7 9 -675 -1 -737 -13 -70 -60 -165 -106 -210
-73 -72 -150 -100 -276 -101 -201 -1 -420 94 -574 250 -111 113 -147 205 -146
376 l1 100 60 1 c74 2 109 15 132 51 17 25 18 59 18 422 1 383 0 395 -20 425
-29 44 -84 61 -129 40 -55 -27 -66 -57 -66 -186 l0 -113 -173 2 c-155 1 -176
3 -208 22 -65 38 -137 30 -188 -23 -97 -100 -30 -257 109 -259 37 0 59 6 80
21 27 21 40 22 205 22 l175 0 0 -104 0 -103 -42 0 c-102 -1 -108 -3 -138 -33
-31 -32 -32 -38 -33 -153 l0 -58 -41 5 c-23 4 -54 9 -71 12 -16 3 -37 6 -45 8
-179 33 -372 167 -461 320 -66 114 -93 279 -65 399 13 56 74 187 87 187 3 0
23 21 43 47 45 58 49 106 11 151 -48 58 -118 51 -181 -17 l-33 -36 -50 55
c-102 111 -150 237 -149 388 1 106 19 176 77 290 l31 62 53 -40 c29 -22 84
-54 123 -71 l69 -32 185 -1 185 -1 1 -303 c1 -166 -2 -305 -7 -307 -15 -10
-21 -93 -9 -129 15 -47 71 -86 123 -86 100 0 161 84 129 180 -10 32 -15 99
-16 233 l-2 187 181 0 180 0 0 -144 c1 -225 5 -229 266 -228 196 0 184 5 163
-61 -27 -83 37 -167 126 -167 67 0 127 73 115 139 -3 20 -10 81 -14 136 -8
114 -12 127 -49 151 -23 15 -53 18 -209 18 l-183 1 0 142 c0 78 -4 153 -10
167 -5 14 -24 35 -42 46 -31 18 -51 20 -278 20 l-245 0 -1 70 c-1 39 -7 82
-15 96 -27 51 -51 55 -297 56 -252 1 -269 4 -349 73 -145 124 -134 432 22 588
43 44 60 53 143 78 51 15 82 53 82 99 0 67 -56 117 -120 108 -26 -4 -31 -1
-37 21 -20 80 0 211 44 293 36 65 128 156 228 222 95 63 103 78 99 178 -6 167
73 317 218 416 26 18 49 32 52 32 3 0 6 -103 8 -230 l3 -230 26 -26 c34 -34
98 -43 135 -20 34 23 54 73 54 136 l0 51 69 -7 c68 -6 69 -6 106 28 33 30 38
41 39 79 2 83 -66 141 -143 122 -62 -15 -71 -9 -72 55 -2 98 2 115 38 182 71
130 156 227 258 294 49 32 144 71 195 79 61 10 171 6 225 -8z"/>
<path d="M973 4060 c-43 -26 -66 -63 -66 -109 0 -76 58 -131 138 -131 37 0 50
6 85 38 36 35 40 43 40 89 0 105 -108 167 -197 113z"/>
<path d="M925 3395 c-67 -31 -97 -76 -97 -144 0 -189 272 -215 307 -29 8 40
-8 99 -34 130 -39 47 -123 67 -176 43z"/>
<path d="M2148 3355 c-62 -34 -85 -121 -48 -182 51 -84 167 -83 219 0 68 110
-58 243 -171 182z"/>
<path d="M2174 2758 c-115 -32 -130 -188 -22 -244 88 -46 202 42 184 141 -9
44 -63 101 -103 107 -16 2 -42 0 -59 -4z"/>
<path d="M2096 855 c-89 -31 -128 -113 -97 -206 14 -43 44 -73 91 -92 34 -14
42 -14 106 -2 47 8 103 76 109 133 8 70 -49 154 -113 168 -20 4 -42 8 -48 9
-6 2 -27 -3 -48 -10z"/>
<path d="M3368 5650 c-239 -42 -429 -214 -473 -429 -11 -54 -5 -4700 6 -4754
42 -203 228 -388 445 -442 107 -27 286 -23 419 8 48 12 152 50 199 74 226 115
398 304 489 539 l23 59 70 8 c388 41 699 320 779 696 13 64 14 263 1 326 -19
89 -22 80 42 124 187 126 297 357 288 601 -8 197 -78 367 -213 513 -41 44 -43
50 -36 85 4 20 8 91 8 157 0 105 -4 130 -28 201 -28 81 -91 194 -146 261 -21
26 -28 43 -24 62 40 215 13 368 -94 530 -39 59 -139 163 -211 221 -33 27 -44
43 -48 70 -2 19 -7 53 -10 75 -17 128 -104 280 -219 383 -61 54 -137 99 -249
147 -63 27 -75 37 -110 90 -130 198 -369 348 -624 393 -66 12 -222 13 -284 2z
m219 -732 c30 -31 37 -81 18 -122 -43 -89 -178 -77 -204 18 -29 112 104 186
186 104z m464 -238 c41 -11 79 -57 79 -96 0 -104 -122 -157 -191 -83 -49 53
-35 139 30 174 32 17 37 18 82 5z m-747 -151 c34 -16 60 -72 52 -117 -8 -51
-44 -83 -100 -89 -42 -5 -48 -3 -81 30 -29 29 -35 42 -35 77 0 34 6 48 34 76
37 37 82 45 130 23z m1372 -230 c27 -25 43 -72 36 -106 -6 -32 -58 -80 -92
-85 -57 -8 -119 38 -127 95 -6 37 18 88 51 108 39 25 98 20 132 -12z m-1099
-80 c51 -31 58 -112 14 -161 -22 -25 -37 -32 -72 -34 -131 -6 -163 168 -39
214 26 10 63 3 97 -19z m488 -3 c67 -29 84 -125 31 -175 -73 -69 -185 -23
-186 75 0 61 45 111 103 113 10 1 33 -6 52 -13z m-764 -376 c34 -16 51 -48 53
-99 2 -102 -143 -145 -198 -58 -38 59 -16 135 47 162 35 15 57 14 98 -5z
m1194 -4 c78 -33 93 -138 26 -185 -99 -71 -217 24 -166 133 15 32 62 65 93 66
7 0 28 -6 47 -14z m462 -234 c38 -38 44 -85 16 -132 -54 -91 -195 -57 -201 50
-7 104 110 157 185 82z m-452 -265 c1 -1 9 -13 18 -27 58 -85 -37 -200 -132
-160 -43 17 -60 41 -67 91 -5 39 -3 49 21 77 34 41 79 54 124 35 19 -7 36 -15
36 -16z m407 -239 c73 -27 82 -146 15 -188 -31 -19 -76 -23 -108 -10 -33 14
-69 66 -69 101 0 36 37 89 72 103 32 14 38 13 90 -6z m-853 -57 c17 -16 31
-35 32 -43 0 -7 2 -21 4 -31 10 -53 -50 -117 -110 -117 -43 0 -93 36 -104 74
-12 47 -3 82 31 116 41 42 103 42 147 1z m-516 -152 c49 -22 74 -103 48 -153
-29 -53 -117 -73 -163 -36 -105 82 -6 244 115 189z m943 -46 c53 -34 58 -125
9 -171 -49 -45 -140 -29 -171 30 -35 68 -3 136 76 161 20 6 60 -3 86 -20z
m807 -327 c45 -18 68 -57 65 -108 -6 -106 -147 -140 -201 -48 -33 56 -11 131
46 155 41 18 50 18 90 1z m-1528 -52 c27 -18 48 -70 42 -109 -4 -32 -51 -85
-78 -86 -10 -1 -25 -2 -31 -3 -51 -7 -110 51 -110 110 0 88 100 138 177 88z
m994 -348 c100 -52 68 -200 -45 -208 -34 -3 -79 21 -97 51 -57 98 43 208 142
157z m-398 -202 c30 -26 46 -69 41 -105 -5 -35 -52 -86 -85 -91 -59 -10 -122
32 -133 88 -8 43 3 73 38 106 23 22 36 26 73 24 27 -2 53 -10 66 -22z m490
-281 c15 -9 33 -29 40 -45 34 -83 -15 -158 -104 -158 -103 0 -142 147 -54 201
39 23 80 24 118 2z m-761 -283 c84 -60 42 -200 -60 -200 -101 0 -151 117 -80
187 38 38 98 43 140 13z m-502 -482 c29 -24 42 -72 31 -112 -19 -70 -88 -102
-153 -71 -87 41 -78 171 15 201 35 12 79 5 107 -18z m480 17 c131 -53 61 -249
-73 -205 -76 25 -101 122 -45 179 17 16 40 32 53 34 12 2 23 5 24 6 2 0 20 -6
41 -14z"/>
</g>
</svg>
